#!OML:ASF I:\Actors\actors\Patient Classification 2\Patient 1\Session 1\actor1.ASF
:FULLY-SPECIFIED
:DEGREES
367
root -0.530618 18.0749 6.00233 3.83242 -31.2973 -2.12834
lowerback 2.99241 -7.77884 -3.03466
upperback -3.16613 -10.4618 2.97777
thorax -3.84786 -5.09007 5.31763
lowerneck -9.0509 4.6113 12.9744
upperneck 29.9284 2.2265 3.3112
head 11.5369 2.63768 -0.735699
rclavicle 1.63749e-013 1.59028e-015
rhumerus 37.8612 44.8952 2.50554
rradius 139.018
rwrist -89.8285
rhand -0.395983 -57.0584
rfingers 7.12502
rthumb 25.211 -85.4131
lclavicle 1.63749e-013 1.59028e-015
lhumerus 23.135 29.4532 86.3096
lradius 65.056
lwrist 80.8657
lhand -37.8575 -1.60619
lfingers 7.12502
lthumb -10.9018 28.0908
rfemur 8.36781 16.8737 13.4647
rtibia -19.5214
rfoot 3.37822 -6.60098
rtoes 0.052612
lfemur 13.9146 19.3853 -13.182
ltibia 2.38542e-014
lfoot -18.3859 14.1655
ltoes 4.34391
368
root -0.530474 18.076 6.00386 3.85795 -31.2676 -2.11943
lowerback 2.92471 -7.74553 -2.95051
upperback -3.1026 -10.4127 2.90055
thorax -3.77746 -5.07182 5.17639
lowerneck -9.20533 4.58133 13.0711
upperneck 29.9306 2.1419 3.29859
head 11.5686 2.61089 -0.763875
rclavicle -4.21175e-015 1.59028e-014
rhumerus 37.5207 44.7866 2.40613
rradius 138.966
rwrist -89.851
rhand -0.342774 -57.009
rfingers 7.12502
rthumb 25.262 -85.3565
lclavicle -4.21175e-015 1.59028e-014
lhumerus 23.3382 29.2086 86.0982
lradius 64.9988
lwrist 81.0862
lhand -38.158 -1.97562
lfingers 7.12502
lthumb -11.1916 27.7059
rfemur 8.34547 16.8766 13.4464
rtibia -19.5114
rfoot 3.35636 -6.62204
rtoes -0.0117318
lfemur 13.872 19.3744 -13.2092
ltibia 4.77083e-015
lfoot -18.3464 14.2193
ltoes 3.99391
369
root -0.530522 18.0768 6.00542 3.86921 -31.2521 -2.11836
lowerback 2.96183 -7.76947 -3.00169
upperback -3.13067 -10.4474 2.94136
thorax -3.8076 -5.086 5.25439
lowerneck -9.19072 4.58627 13.0337
upperneck 29.9892 2.16049 3.27589
head 11.5882 2.61454 -0.763579
rclavicle -1.18712e-013 -1.35174e-014
rhumerus 37.7204 44.813 2.59
rradius 138.981
rwrist -89.8422
rhand -0.544775 -57.0102
rfingers 7.12502
rthumb 25.0685 -85.3849
lclavicle -1.18712e-013 -1.35174e-014
lhumerus 23.301 29.2035 85.8156
lradius 64.9888
lwrist 81.1281
lhand -38.6041 -2.44507
lfingers 7.12502
lthumb -11.6219 27.2126
rfemur 8.33747 16.8753 13.4406
rtibia -19.5006
rfoot 3.35833 -6.6115
rtoes -0.278217
lfemur 13.8602 19.3739 -13.2155
ltibia -3.97569e-014
lfoot -18.3388 14.2239
ltoes 3.83214
370
root -0.531008 18.0773 6.00735 3.88474 -31.261 -2.1417
lowerback 3.01753 -7.79131 -3.05324
upperback -3.16627 -10.4794 3.00099
thorax -3.85269 -5.09799 5.35547
lowerneck -9.13696 4.60569 12.9765
upperneck 30.0539 2.20478 3.2691
head 11.6029 2.62912 -0.751459
rclavicle 9.3727e-014 -6.75868e-015
rhumerus 38.2993 44.9248 2.64465
rradius 139
rwrist -89.6792
rhand -0.923894 -57.1263
rfingers 7.12502
rthumb 24.7052 -85.5513
lclavicle 9.3727e-014 -6.75868e-015
lhumerus 23.2194 29.2494 85.5554
lradius 65.1322
lwrist 81.0705
lhand -39.4053 -3.39365
lfingers 7.12502
lthumb -12.3945 26.2189
rfemur 8.33752 16.9568 13.4585
rtibia -19.4954
rfoot 3.29898 -6.66565
rtoes -0.307566
lfemur 13.8677 19.3951 -13.1867
ltibia 3.81667e-014
lfoot -18.3245 14.1814
ltoes 4.04989
371
root -0.531921 18.0772 6.00989 3.89465 -31.2942 -2.15346
lowerback 3.02791 -7.76787 -3.05355
upperback -3.16606 -10.4481 3.00831
thorax -3.86022 -5.08201 5.36392
lowerneck -9.05065 4.62085 13.0315
upperneck 30.0362 2.24312 3.22628
head 11.5826 2.64578 -0.773112
rclavicle -3.34331e-014 1.63003e-014
rhumerus 38.3123 44.958 2.59563
rradius 138.928
rwrist -89.5115
rhand -0.928974 -57.0428
rfingers 7.12502
rthumb 24.7003 -85.4684
lclavicle -3.34331e-014 1.63003e-014
lhumerus 23.0392 29.0922 85.3328
lradius 65.6302
lwrist 81.1813
lhand -39.5562 -3.60165
lfingers 7.12502
lthumb -12.5399 26.002
rfemur 8.33973 17.0419 13.4643
rtibia -19.5032
rfoot 3.23695 -6.72446
rtoes -0.136111
lfemur 13.8813 19.4398 -13.169
ltibia 4.77083e-015
lfoot -18.3004 14.1677
ltoes 4.194
372
root -0.533169 18.0762 6.01386 3.8544 -31.3475 -2.13867
lowerback 3.03556 -7.70111 -3.02925
upperback -3.13178 -10.3586 2.95553
thorax -3.85208 -5.03903 5.29288
lowerneck -8.98944 4.6162 13.1986
upperneck 29.9881 2.23692 3.15365
head 11.5577 2.65045 -0.829522
rclavicle -9.93923e-015 -4.69132e-014
rhumerus 37.8072 44.9132 2.45907
rradius 138.745
rwrist -89.374
rhand -0.607208 -56.8327
rfingers 7.12502
rthumb 25.0086 -85.2157
lclavicle -9.93923e-015 -4.69132e-014
lhumerus 22.5575 28.6168 85.008
lradius 66.5951
lwrist 81.5359
lhand -39.8404 -3.60314
lfingers 7.12502
lthumb -12.814 25.9836
rfemur 8.38882 16.9992 13.4595
rtibia -19.5271
rfoot 3.29281 -6.65289
rtoes -0.042248
lfemur 13.9471 19.4996 -13.1656
ltibia -1.74931e-014
lfoot -18.2714 14.1944
ltoes 4.10473
